# xmcd
#
# Track frame offsets:
#	150
#	16168
#	28710
#	42699
#	54873
#	68401
#	80362
#	90801
#	104266
#	120849
#	133001
#	146325
#	158292
#	169608
#	179448
#	190914
#	203924
#	219719
#	229993
#	241597
#
# Disc length: 3375 seconds
#
# Revision: 8
# Processed by: cddbd v1.5.2PL0 Copyright (c) Steve Scherf et al.
# Submitted via: EZCDAudioConverter 2.1.7.1
#
DISCID=f50d2d14
DTITLE=V/A - Trojan Explosion
DYEAR=2002
DGENRE=MOJO
TTITLE0=Bob Marley and The Wailers - Mr. Brown
TTITLE1=Delroy Wilson - Better Must Come
TTITLE2=Niney - Blood And Fire
TTITLE3=Theo Beckford - Easy Snappin'
TTITLE4=The Crystalites - Untertaker's Burial
TTITLE5=John Holt - Ali Baba
TTITLE6=Slim Smith - Everybody Needs Love
TTITLE7=The Maytals - Pressure Drop
TTITLE8=Johnny Clarke - None Shall Escape The Judgement
TTITLE9=Junior Byles - A Place Called Africa
TTITLE10=Joe White - I'm So Proud
TTITLE11=The Untouchables - Tighten Up
TTITLE12=Desmond Dekker and The Aces  - 007
TTITLE13=Ken Boothe - Artibella
TTITLE14=The Ethiopians - Everything Crash
TTITLE15=Harry J. All Stars - Liquidator
TTITLE16=Gregory Isaacs - Don't Let Me Suffer
TTITLE17=Drumbago and The Dynamites - Dulcemania
TTITLE18=The Upsetters - Dollar In The Teeth
TTITLE19=Jimmy Cliff - Hard Road To Travel
EXTD=
EXTT0=
EXTT1=
EXTT2=
EXTT3=
EXTT4=
EXTT5=
EXTT6=
EXTT7=
EXTT8=
EXTT9=
EXTT10=
EXTT11=
EXTT12=
EXTT13=
EXTT14=
EXTT15=
EXTT16=
EXTT17=
EXTT18=
EXTT19=
PLAYORDER=
